<svg xmlns="http://www.w3.org/2000/svg" viewBox="0 0 125.35 244.87"><defs><style>.a{fill:#666;}</style></defs><title>logo_rocket</title><path class="a" d="M1531.11,5133.88c2.3-8.21,4.56-17.07,6.67-26.52,12.48-56-17.14-94.25-17.44-94.63a1.52,1.52,0,0,0-1.87-.42c-0.43.22-43.49,22.25-56,78.27-2,9-3.65,17.53-5,25.58-11.72,6.52-31.69,22.54-38.91,58.21a1.52,1.52,0,0,0,2.26,1.61,62.77,62.77,0,0,1,28.61-7.44c0.7,0,1.39,0,2.08.07-0.58,10.92-.43,17.18-0.42,17.34a1.52,1.52,0,0,0,1.19,1.44l8.51,1.9-1.24,5.58a1.52,1.52,0,0,0,1.15,1.81l34.9,7.77a1.52,1.52,0,0,0,1.81-1.15l1.24-5.58,7.25,1.62a1.52,1.52,0,0,0,1.69-.8c0.07-.14,2.83-5.67,6.9-15.67a62.56,62.56,0,0,1,23.52,19.22,1.52,1.52,0,0,0,1.26.66,1.5,1.5,0,0,0,.27.05,1.43,1.43,0,0,0,1.21-1.06C1548.74,5168.87,1540,5146.83,1531.11,5133.88Zm-108.88,38c7-30.26,23.57-45.06,34.6-51.78-3.11,19.19-4.51,35-5.15,45.5-0.74,0-1.49,0-2.24,0A65.24,65.24,0,0,0,1422.23,5171.83Zm96.48-156.19c2.93,4.14,13.57,20.55,17.57,45.19l-26.33-5.87-26.34-5.87C1497.69,5028.48,1514.3,5018.14,1518.71,5015.64ZM1479,5097a21.23,21.23,0,0,1,25.23-16.23h0a21.25,21.25,0,0,1-9.15,41.51h0A21.23,21.23,0,0,1,1479,5097Zm15.82,104.12-31.93-7.11,0.91-4.1,31.92,7.11Zm10.61-5-7.56-1.68v-0.83l-34.89-8.6h0l-8.82-1.14c0-4.86.1-24,4-52.46l33,7.57,33,7.46C1515.68,5173.85,1507.5,5191.72,1505.4,5196.11Zm33.12,1.63a64.55,64.55,0,0,0-22.86-17.71c3.8-9.56,9.15-24.18,14.43-42.5C1537.79,5149.77,1544.58,5169.47,1538.52,5197.73Z" transform="translate(-1418.54 -5012.15)"/><path class="a" d="M1477,5203.49c-36.8-8.07-11.75,53.53-11.75,53.53S1513.83,5211.57,1477,5203.49Zm-8.12,37s-15.07-42.09,8.11-37S1468.92,5240.5,1468.92,5240.5Z" transform="translate(-1418.54 -5012.15)"/></svg>